# xmcd CD database file
#
# Track frame offsets:
#	150
#	16043
#	33443
#	51489
#	65268
#	84302
#	100010
#	116082
#	130048
#	148843
#	167822
#	185826
#	201950
#	219740
#	234200
#	251628
#	265609
#	282309
#	299301
#	317529
#	333496
#
# Disc length: 4646 seconds
#
# Revision: 0
# Processed by: cddbd v1.5.1PL2 Copyright (c) Steve Scherf et al.
# Submitted via: CDex 1.51
#
DISCID=37122415
DTITLE=Sampler - la Isla Mix 2001
DYEAR=2001
DGENRE=Salsa
TTITLE0=no rompas mi corazon
TTITLE1=mayonesa
TTITLE2=comadre compadre
TTITLE3=dile que la quiero
TTITLE4=el verano ya llego
TTITLE5=yo quiero bailar
TTITLE6=prohibida
TTITLE7=el baile del gorila
TTITLE8=lo hare por ti
TTITLE9=mueve la golita
TTITLE10=baila mi ritmo
TTITLE11=cant fihgt the moonlight
TTITLE12=super
TTITLE13=que si que no
TTITLE14=dame mas
TTITLE15=mariana mambo
TTITLE16=mal herio
TTITLE17=me pongo colorada
TTITLE18=me gustas tu
TTITLE19=el humahuaqueno
TTITLE20=la bomba
EXTD=YEAR: 2001
EXTT0=
EXTT1=
EXTT2=
EXTT3=
EXTT4=
EXTT5=
EXTT6=
EXTT7=
EXTT8=
EXTT9=
EXTT10=
EXTT11=
EXTT12=
EXTT13=
EXTT14=
EXTT15=
EXTT16=
EXTT17=
EXTT18=
EXTT19=
EXTT20=
PLAYORDER=
